<svg width="150" height="38" fill="none" xmlns="http://www.w3.org/2000/svg"><g clip-path="url(#clip0_59161_427)"><path d="M6.194 20.935V18.65a147.627 147.627 0 0120.582-1.343c0 .606 0 1.222-.062 1.838a26.235 26.235 0 016.123-1.838 16.884 16.884 0 00-6.973-8.285 17.146 17.146 0 00-10.618-2.398 17.087 17.087 0 00-9.91 4.47 16.793 16.793 0 00-5.142 9.506l6 .334zM27.796 24.481c-1.184 1.293-1.418 1.213-1.418 3.486v9.275c2.339-1.53 4.26-3.609 5.59-6.052A16.683 16.683 0 0034 23.237a17.316 17.316 0 00-.327-3.132 33.757 33.757 0 00-5.877 4.375zM6.49 25.987s-3.868-1.455-5.296-1.85A8.798 8.798 0 000 23.856c.11 2.916.985 5.753 2.538 8.233A16.921 16.921 0 008.858 38L6.49 25.987z" fill="#FDC305"/><path d="M26.826 17.297A89.866 89.866 0 0025.398.657s-.143-1.304-.908-.243a14.264 14.264 0 00-1.225 3.981 72.484 72.484 0 00-13.03.344C9.429 2.02 8.01.758 7.327 1.01c-.684.253-.735 3.345-.735 3.345L6.255 18.6a147.586 147.586 0 0120.572-1.303z" fill="#F06351"/><path d="M12.663 14.145c0-.09 1.02.687 1.439.93.418.242.623.424.623.596s-.276.343-.643.343c-.368 0-.929-.12-1.02-.272h1.254a8.472 8.472 0 01-1.653-1.597zM20.296 14.256L19.184 15.6c0 .06-.174.354.183.303.423-.062.84-.16 1.245-.293.113 0 .072-.192-.112-.172-.184.02-.704.051-1.02.112l.857-1.274s.071-.13-.041-.02zM17.092 20.41a2.339 2.339 0 001.112-1.01c.286-.658 0-.92-.449-1.011a2.5 2.5 0 00-1.775.343c-.398.364-.347.728-.051 1.01.358.27.749.494 1.163.668z" fill="#000"/><path d="M16.684 21.672c-.115.231-.274.437-.47.607-.29.231-.648.366-1.02.384a2.21 2.21 0 01-1.5-.435 2.34 2.34 0 01-.54-.444 1.09 1.09 0 00-.368-.263s.765 4.142 2.622 4.8c1.857.656 2.184-.759 2.245-1.143a5.626 5.626 0 00-.837-3.263c-.02-.313-.03-.111-.132-.243z" fill="#F06351"/><path d="M15.01 22.824a3.533 3.533 0 01-1.338-.474 3.496 3.496 0 01-1.071-1.007.142.142 0 01.078-.187.144.144 0 01.158.031 3.331 3.331 0 002.153 1.314c.338-.025.666-.13.955-.306.29-.176.532-.417.708-.704l.143-.192.102.212s.378.768 1.02.808c.643.04 1.072-.414 1.643-1.293a.142.142 0 01.158-.032.142.142 0 01.046.032.151.151 0 01.051.202c-.653 1.01-1.296 1.455-1.918 1.414a1.591 1.591 0 01-1.143-.767 2.3 2.3 0 01-1.745.95z" fill="#000"/><path d="M26.776 19.116a59.511 59.511 0 00-5.174 5.244 32.154 32.154 0 01-5.398 4.94c-.224-.535-1.653-1.525-1.653-1.525s-3.194-2.162-5.286-3.86a34.67 34.67 0 01-3.194-3.03l-2.04-.112a23.017 23.017 0 0012.245 8.892c.877-.142 3.336-1.88 5.173-3.294a59.027 59.027 0 006.061-5.951 6.199 6.199 0 001.163-2.021 39.226 39.226 0 00-1.897.717z" fill="#F06351"/></g><g clip-path="url(#clip1_59161_427)" fill="#111"><path d="M50.264 29.538A6.865 6.865 0 0149 25.231v-6.385a6.95 6.95 0 011.185-4.385c.87-1 2.213-1.461 4.189-1.461s3.24.461 4.03 1.308a5.422 5.422 0 011.186 3.769v1.538h-3.873v-1.769a3.691 3.691 0 00-.237-1.538 1.12 1.12 0 00-.456-.473 1.164 1.164 0 00-.65-.143c-.553 0-.948.154-1.106.539a4.846 4.846 0 00-.237 1.692v8.23a3.112 3.112 0 00.316 1.616c.158.385.553.539 1.106.539s.87-.154 1.027-.539c.18-.52.26-1.067.238-1.615v-1.846h3.872v1.538a5.775 5.775 0 01-1.186 3.846c-.79.923-2.133 1.385-4.03 1.385-1.897-.077-3.32-.539-4.11-1.539zM64.253 13.23h4.504l3.32 17.54H68.44l-.632-3.693h-2.608l-.632 3.692h-3.715l3.399-17.538zm3.24 11.54l-.948-6.847-.949 6.846h1.897zM74.843 16.154h-2.687V13.23h9.404v2.846h-2.687v14.692h-4.03V16.154zM88.752 13.23h6.955v1.847h-4.505v5.77h3.635v1.768h-3.635v6.462h4.505v1.77h-7.034V13.23h.079zM97.761 13.23H99.5l5.137 11.616V13.231h2.055v17.538h-1.581l-5.216-12v12h-2.134V13.231zM109.063 13.23h6.954v1.847h-4.504v5.77h3.635v1.768h-3.635v6.462h4.504v1.77h-6.954V13.23zM118.072 13.23h3.635a6.452 6.452 0 014.031 1.078c.869.692 1.264 1.923 1.264 3.538 0 2.23-.711 3.616-2.212 4.077l2.528 8.77h-2.449l-2.371-8.232h-1.976v8.231h-2.529V13.231h.079zm3.477 7.54a3.523 3.523 0 002.292-.616c.474-.385.711-1.154.711-2.308a4.84 4.84 0 00-.237-1.692 1.975 1.975 0 00-.869-.923 3.69 3.69 0 00-1.739-.308h-1.106v5.77h.948v.076zM130.164 29.462A7.607 7.607 0 01129.057 25v-5.846a12.267 12.267 0 01.395-3.308 3.92 3.92 0 011.502-2 5.27 5.27 0 012.924-.692c1.66 0 2.845.385 3.556 1.23a5.773 5.773 0 011.107 3.847v.615h-2.371v-.538c.003-.645-.05-1.288-.158-1.923a1.533 1.533 0 00-.633-1 2.491 2.491 0 00-1.501-.385 2.417 2.417 0 00-1.581.461 1.734 1.734 0 00-.632 1.231 14.024 14.024 0 00-.158 2.077v6.539a6.816 6.816 0 00.474 2.923c.316.615.949.846 1.897.846.374.045.754-.018 1.092-.182.337-.165.617-.422.805-.741a6.922 6.922 0 00.553-3.077v-1.23h-2.292v-1.77h4.584v8.692h-1.581l-.237-2a3.143 3.143 0 01-1.226 1.658 3.287 3.287 0 01-2.014.573 4.047 4.047 0 01-1.899-.352 3.928 3.928 0 01-1.499-1.186zM143.678 24.615l-3.873-11.307h2.371l2.766 8.461 2.687-8.461H150l-3.872 11.307v6.154h-2.371v-6.154h-.079z"/></g><defs><clipPath id="clip0_59161_427"><path fill="#fff" d="M0 0h34v38H0z"/></clipPath><clipPath id="clip1_59161_427"><path fill="#fff" transform="translate(49 13)" d="M0 0h101v18H0z"/></clipPath></defs></svg>